<?xml version="1.0" standalone="no"?>
<!DOCTYPE svg PUBLIC "-//W3C//DTD SVG 20010904//EN"
 "http://www.w3.org/TR/2001/REC-SVG-20010904/DTD/svg10.dtd">
<svg version="1.0" xmlns="http://www.w3.org/2000/svg"
 width="160.000000pt" height="160.000000pt" viewBox="0 0 160.000000 160.000000"
 preserveAspectRatio="xMidYMid meet">
<metadata>
Created by potrace 1.14, written by Peter Selinger 2001-2017
</metadata>
<g transform="translate(0.000000,160.000000) scale(0.100000,-0.100000)"
fill="#000000" stroke="none">
<path d="M733 1423 c-35 -7 -29 -33 7 -33 19 0 33 7 40 20 11 21 5 23 -47 13z"/>
<path d="M871 1394 c12 -14 9 -20 -21 -46 -28 -24 -41 -28 -67 -23 -36 6 -43
-5 -17 -26 10 -8 14 -24 12 -45 l-4 -32 39 44 c39 44 101 84 132 84 8 0 15 4
15 8 0 5 -13 7 -30 4 -24 -3 -32 0 -41 22 -7 14 -17 26 -22 26 -5 0 -3 -7 4
-16z"/>
<path d="M565 1390 c-63 -11 -92 -27 -111 -59 -14 -24 -34 -35 -96 -56 -43
-14 -82 -24 -87 -20 -12 7 -50 -9 -81 -34 l-25 -21 31 6 c17 3 34 1 38 -4 6
-10 -50 -191 -62 -203 -4 -3 -17 -3 -28 0 -22 6 -21 6 7 65 33 67 35 84 14 92
-8 4 -12 11 -8 18 4 6 -6 0 -21 -14 -31 -28 -48 -59 -71 -121 -36 -100 -55
-188 -55 -261 0 -67 3 -80 25 -106 14 -17 25 -35 25 -41 0 -5 14 -26 31 -46
22 -25 47 -40 88 -51 31 -9 67 -25 80 -35 13 -11 30 -19 38 -19 8 0 21 -17 30
-38 26 -64 54 -94 111 -119 48 -22 62 -25 123 -19 38 4 69 3 69 -2 0 -16 78
-52 115 -52 30 0 47 -9 86 -44 65 -58 152 -91 244 -91 101 0 163 36 227 129
27 38 48 77 48 87 0 11 14 20 43 28 79 20 156 155 178 311 6 47 14 99 16 117
3 21 -3 50 -17 80 -12 26 -30 67 -41 91 -10 23 -19 50 -19 60 -1 16 -1 16 -11
0 -14 -25 -45 -22 -63 4 l-16 22 -6 -31 c-8 -42 -35 -65 -71 -61 -21 2 -29 9
-31 28 -6 49 -12 56 -25 30 -14 -28 -68 -40 -91 -21 -10 8 -17 7 -26 -5 -23
-26 -61 -41 -158 -59 -88 -17 -95 -17 -129 -1 -31 15 -35 20 -31 46 5 34 1 36
-26 15 -45 -34 -85 -7 -87 58 l-1 42 -13 -54 c-7 -29 -18 -58 -24 -64 -17 -17
-13 -25 13 -20 23 5 86 -21 86 -35 -1 -4 -20 -16 -43 -28 -64 -31 -111 -22
-148 29 -31 43 -37 94 -20 171 5 21 6 35 1 30 -11 -12 -40 -113 -40 -141 0
-13 -9 -32 -20 -43 -14 -14 -18 -28 -14 -44 5 -22 2 -24 -46 -31 -48 -7 -54
-5 -81 21 -16 15 -34 43 -40 62 -15 45 -4 136 21 177 26 41 25 45 -5 45 -19 0
-25 -5 -25 -22 0 -30 -60 -178 -72 -178 -5 0 -20 11 -34 26 -22 21 -25 31 -19
62 22 122 103 212 190 212 69 0 103 -36 80 -85 -17 -39 -39 -168 -32 -186 3
-8 6 0 6 17 2 66 54 198 99 250 10 12 41 33 68 47 43 23 46 26 22 27 -34 0
-41 12 -23 36 27 36 20 39 -60 24z m40 -26 c-10 -7 -22 -11 -26 -8 -14 8 -11
-10 4 -25 10 -10 4 -19 -27 -46 l-38 -34 -41 21 -41 20 24 19 c14 10 38 28 53
40 29 23 85 40 101 31 5 -3 1 -11 -9 -18z m910 -454 c3 -34 1 -40 -16 -40 -10
0 -19 4 -19 10 0 5 -12 21 -26 35 -29 29 -21 51 19 57 27 4 37 -11 42 -62z
m-213 29 c73 -21 111 -49 106 -77 -6 -30 -60 -26 -124 7 -35 19 -72 31 -95 31
-47 0 -54 10 -28 38 25 27 53 28 141 1z m-206 -131 c3 -5 12 -4 20 3 17 14 29
6 21 -16 -8 -18 -63 -20 -119 -3 -37 11 -38 12 -18 23 23 12 87 8 96 -7z
m-158 6 c29 -8 28 -13 -8 -50 -23 -26 -42 -34 -97 -44 -37 -6 -77 -17 -88 -24
-11 -7 -32 -16 -47 -19 -29 -8 -33 8 -9 37 17 21 184 100 221 105 3 0 15 -2
28 -5z m-320 -100 c15 -5 22 -14 22 -31 0 -22 -3 -24 -22 -18 -13 5 -45 9 -73
11 -27 2 -52 3 -55 4 -3 0 6 10 19 20 23 20 66 25 109 14z"/>
<path d="M1046 1375 c19 -19 31 -23 54 -19 39 8 76 -2 102 -28 11 -11 19 -15
16 -7 -9 28 -56 52 -102 51 -27 -1 -51 4 -60 13 -8 8 -19 15 -25 15 -5 0 1
-11 15 -25z"/>
<path d="M360 1325 c-25 -13 -40 -24 -35 -24 17 0 111 47 95 48 -8 0 -35 -11
-60 -24z"/>
<path d="M1035 1310 c-11 -4 -31 -19 -43 -33 l-24 -25 48 24 c26 13 53 24 60
24 7 0 16 5 19 10 7 12 -32 12 -60 0z"/>
<path d="M1180 1170 c0 -9 -15 -11 -51 -8 -45 5 -50 3 -46 -13 3 -10 -2 -24
-10 -30 -8 -7 -19 -21 -25 -32 -7 -14 2 -10 30 13 60 47 130 41 207 -18 11 -8
2 2 -20 22 -75 71 -85 78 -85 66z"/>
<path d="M894 1077 c-6 -26 -7 -47 -2 -47 10 0 20 43 16 71 -2 16 -6 9 -14
-24z"/>
<path d="M440 946 c0 -9 5 -16 10 -16 6 0 10 4 10 9 0 6 -4 13 -10 16 -5 3
-10 -1 -10 -9z"/>
<path d="M435 900 c-3 -5 1 -10 9 -10 9 0 16 5 16 10 0 6 -4 10 -9 10 -6 0
-13 -4 -16 -10z"/>
</g>
</svg>
